<svg width="24" height="24" viewBox="0 0 24 24" fill="none" xmlns="http://www.w3.org/2000/svg">
<path d="M10.1 6.3002C10.1 6.4002 10.2 6.5002 10.2 6.7002L9.90005 8.1002C9.80005 8.4002 10.2 8.7002 10.5 8.5002L11.8 7.8002C11.9 7.8002 12 7.8002 12.2 7.8002L13.5 8.5002C13.8 8.7002 14.1 8.4002 14.1 8.1002L13.9 6.6002C13.9 6.5002 14 6.4002 14 6.2002L15.1 5.2002C15.3 5.0002 15.2 4.6002 14.9 4.5002L13.4 4.3002C13.3 4.2002 13.2 4.2002 13.1 4.1002L12.4 2.8002C12.3 2.5002 11.8 2.5002 11.7 2.8002L11 4.2002C10.9 4.3002 10.8 4.3002 10.7 4.4002L9.20005 4.6002C8.90005 4.7002 8.80005 5.1002 9.00005 5.3002L10.1 6.3002Z" fill="#ABB6BA"/>
<path d="M18.2 14.8002C16.8 14.7002 15.7 15.6002 15.2 16.8002C15.2 16.9002 15 16.9002 15 16.8002V12.7002C15 11.1002 13.7 9.7002 12 9.7002C10.4 9.7002 9 11.0002 9 12.7002V15.0002C9 15.1002 8.9 15.1002 8.8 15.0002C8.4 13.9002 7.3 13.2002 6 13.2002C4.3 13.2002 3 14.4002 3 16.0002V20.3002C3 20.9002 3.6 21.5002 4.3 21.5002H7.8H10.3H13.8H16.3H19.8C20.5 21.5002 21 20.9002 21 20.3002V18.0002C21 16.3002 19.8 14.9002 18.2 14.8002Z" fill="#ABB6BA"/>
</svg>
