<svg width="88" height="88" viewBox="0 0 88 88" fill="none" xmlns="http://www.w3.org/2000/svg">
<path d="M29 71.8204V28.1469C29 27.8573 29 27.5724 29.0703 27.2828V27.1007C29.5761 24.7654 31.8148 23 34.4142 23H66.5483C69.5458 23 72 25.3025 72 28.1469V71.8531C72 74.6975 69.5458 77 66.5483 77H34.4517C31.4542 77 29 74.7301 29 71.8531V71.8158V71.8204Z" fill="url(#paint0_linear_4337_41160)"/>
<path d="M63.316 42.5672C62.5779 40.2936 61.2839 38.5717 58.4755 38.058C54.3396 37.3255 51.421 39.5991 50.4241 42.239C50.3139 42.5672 49.7963 42.5672 49.6861 42.239C48.6892 39.5991 45.7706 37.3255 41.6347 38.058C38.8263 38.5717 37.5323 40.2555 36.7942 42.5672C36.2766 44.1797 36.3869 46.1584 36.684 47.5901C36.8326 48.2513 36.9811 48.8364 37.2016 49.4214C38.3087 52.4276 40.379 54.5157 42.3727 56.2043C44.8121 58.2591 47.8793 59.9096 49.3937 60.6754C49.6142 60.7848 50.0934 61.0417 50.0934 61.0417C50.0934 61.0417 50.5727 60.7848 50.7931 60.6754C52.3076 59.9049 55.3748 58.2543 57.8142 56.2043C59.7743 54.5157 61.8782 52.4276 62.9853 49.4214C63.2057 48.8364 63.3543 48.2466 63.5029 47.5901C63.8 46.1584 63.9102 44.2178 63.3926 42.5672H63.3208H63.316Z" fill="#CFD5D8" fill-opacity="0.8"/>
<path d="M17.4674 14.8524L17.4788 14.8057V14.7577V14.5992C18.0178 12.2232 20.331 10.3994 23.0442 10.3994H58.9148C62.0645 10.3994 64.6004 12.8023 64.6004 15.7176V64.276C64.6004 67.1913 62.0645 69.5942 58.9148 69.5942H23.086C19.9346 69.5942 17.4004 67.2261 17.4004 64.276V64.2397V64.2345V15.7176C17.4004 15.389 17.4022 15.1201 17.4674 14.8524Z" fill="url(#paint1_linear_4337_41160)" fill-opacity="0.7" stroke="url(#paint2_linear_4337_41160)" stroke-width="0.8"/>
<path d="M55.5274 32.4371C54.7223 29.9567 53.3107 28.0783 50.2469 27.5179C45.735 26.7188 42.551 29.1992 41.4636 32.079C41.3433 32.4371 40.7787 32.4371 40.6584 32.079C39.571 29.1992 36.387 26.7188 31.8751 27.5179C28.8114 28.0783 27.3998 29.9152 26.5946 32.4371C26.03 34.1961 26.1502 36.3547 26.4744 37.9166C26.6364 38.6379 26.7985 39.2761 27.039 39.9144C28.2467 43.1938 30.5053 45.4717 32.6802 47.3138C35.3414 49.5555 38.6874 51.356 40.3395 52.1915C40.58 52.3108 41.1028 52.591 41.1028 52.591C41.1028 52.591 41.6257 52.3108 41.8662 52.1915C43.5183 51.3508 46.8643 49.5503 49.5255 47.3138C51.6638 45.4717 53.959 43.1938 55.1667 39.9144C55.4072 39.2761 55.5692 38.6327 55.7313 37.9166C56.0555 36.3547 56.1757 34.2376 55.6111 32.4371H55.5326H55.5274Z" fill="white"/>
<path d="M55.0498 32.5913C55.0789 32.6808 55.1315 32.7578 55.1995 32.8162C55.6513 34.4554 55.5403 36.3639 55.2407 37.8104C55.0801 38.5197 54.9242 39.1343 54.6968 39.7379L54.6955 39.7415C53.5337 42.8961 51.3213 45.1047 49.1995 46.9328C46.5858 49.1288 43.2857 50.907 41.6397 51.7446C41.5128 51.8076 41.318 51.9095 41.1587 51.9937C41.1389 52.0042 41.1195 52.0145 41.1008 52.0244C41.0821 52.0145 41.0628 52.0042 41.043 51.9937C40.8835 51.9094 40.6884 51.8073 40.5615 51.7443C38.9165 50.9124 35.6149 49.1337 33.0008 46.9318C30.8475 45.108 28.6688 42.8984 27.5062 39.7415L27.5049 39.7379C27.2773 39.1339 27.1214 38.5242 26.9611 37.811C26.647 36.2947 26.5409 34.234 27.0687 32.5899L27.0689 32.589C27.4574 31.3723 27.9793 30.3627 28.7411 29.5936C29.4966 28.8309 30.5182 28.2741 31.9617 28.0098C36.22 27.2563 39.1767 29.585 40.1861 32.2486C40.3339 32.6723 40.7319 32.8475 41.059 32.8475C41.3861 32.8475 41.7842 32.6723 41.932 32.2486C42.9414 29.585 45.8981 27.2563 50.1563 28.0098C51.5972 28.2736 52.6191 28.8395 53.3758 29.6082C54.1391 30.3835 54.6613 31.3945 55.0498 32.5913Z" stroke="#F5F5F5" stroke-opacity="0.7" stroke-linejoin="round"/>
<defs>
<linearGradient id="paint0_linear_4337_41160" x1="36.8182" y1="95.6608" x2="68.8412" y2="13.7742" gradientUnits="userSpaceOnUse">
<stop stop-color="#CFD5D8"/>
<stop offset="1" stop-color="#CFD5D8"/>
</linearGradient>
<linearGradient id="paint1_linear_4337_41160" x1="-24.4996" y1="-2.50059" x2="69.5004" y2="54.9994" gradientUnits="userSpaceOnUse">
<stop stop-color="#CFD5D8"/>
<stop offset="1" stop-color="#F0F0F0"/>
</linearGradient>
<linearGradient id="paint2_linear_4337_41160" x1="41.0004" y1="9.99941" x2="41.0004" y2="69.9942" gradientUnits="userSpaceOnUse">
<stop stop-color="#FBFBFB"/>
<stop offset="1" stop-color="#DDE1E3"/>
</linearGradient>
</defs>
</svg>
