<?xml version="1.0" encoding="utf-8"?>
<!-- Generator: Adobe Illustrator 26.3.1, SVG Export Plug-In . SVG Version: 6.00 Build 0)  -->
<svg version="1.1" id="_이어_2" xmlns="http://www.w3.org/2000/svg" xmlns:xlink="http://www.w3.org/1999/xlink" x="0px" y="0px"
	 viewBox="0 0 40 40" style="enable-background:new 0 0 40 40;" xml:space="preserve">
<style type="text/css">
	.st0{fill:#EA8663;}
	.st1{fill:#F4CABE;}
	.st2{fill:url(#SVGID_1_);stroke:#FFE6D9;stroke-width:1.13;stroke-linejoin:round;}
	.st3{opacity:0.8;fill:#FFE6D9;enable-background:new    ;}
	.st4{fill:#E0714F;}
</style>
<path class="st0" d="M14.72,26.43v11.63l-2.47,1.08c-0.47,0.2-1-0.15-1-0.66V23.97C12.23,24.79,13.4,25.61,14.72,26.43z"/>
<path class="st0" d="M28.46,24.21v14.27c0,0.51-0.53,0.86-1.01,0.66l-2.46-1.08V26.62c0.59-0.36,1.2-0.75,1.8-1.17
	C27.27,25.12,27.88,24.68,28.46,24.21z"/>
<path class="st1" d="M24.99,26.62v11.44l-5.14-2.23l-5.13,2.23V26.43c1.18,0.73,2.49,1.46,3.89,2.16c0.43,0.21,0.91,0.32,1.39,0.32
	c0.22,0,0.44-0.03,0.62-0.06c0.27-0.05,0.55-0.14,0.79-0.27C22.36,28.11,23.63,27.44,24.99,26.62z"/>
<linearGradient id="SVGID_1_" gradientUnits="userSpaceOnUse" x1="20.0134" y1="3610.22" x2="20.0134" y2="3640.7" gradientTransform="matrix(1 0 0 1 0 -3609.4199)">
	<stop  offset="0" style="stop-color:#FF9354"/>
	<stop  offset="1" style="stop-color:#FFD9B0"/>
</linearGradient>
<path class="st2" d="M37.25,10.34c-0.41-2.15-1.35-4.12-2.71-5.69c-0.16-0.19-0.3-0.33-0.4-0.43c-0.83-0.78-2.21-1.85-4.03-2.58
	c-1.31-0.54-2.67-0.81-4.04-0.83h-0.1c-2.44,0.03-4.47,0.87-5.96,1.79c-1.53-0.96-3.6-1.8-6.12-1.8c-1.03,0-2.05,0.14-3.05,0.43
	C7.2,2.26,4.41,4.98,3.18,8.69c-0.71,2.12-0.87,4.44-0.44,6.52c0.17,0.87,0.4,1.64,0.66,2.32c1.42,3.83,4.05,6.4,6.2,8.22
	c2.51,2.11,5.56,3.83,7.69,4.9c0.02,0,0.05,0.02,0.07,0.03c0.82,0.4,1.74,0.6,2.66,0.6c0.4,0,0.81-0.04,1.24-0.12
	c0.53-0.11,1.04-0.29,1.49-0.52c1.39-0.7,3.47-1.81,5.56-3.27c0.55-0.38,1.37-0.97,2.13-1.63c0.25-0.21,0.49-0.41,0.74-0.64
	c2.15-1.92,5.11-5.03,6.11-9.9c0.32-1.58,0.31-3.28-0.02-4.86H37.25z M33.94,14.46c-0.75,3.7-2.93,6.23-5.12,8.19
	c-0.24,0.21-0.46,0.41-0.69,0.6c-0.6,0.52-1.26,1-1.91,1.46c-2.01,1.4-4.09,2.49-5.26,3.08c-0.16,0.08-0.33,0.14-0.51,0.17
	c-0.48,0.1-0.98,0.04-1.42-0.17c-1.55-0.78-4.67-2.45-7.17-4.55c-2.02-1.72-4.15-3.87-5.28-6.91c-0.22-0.58-0.4-1.21-0.53-1.87
	c-0.3-1.45-0.21-3.2,0.35-4.86c0.77-2.32,2.47-4.44,5.26-5.23c4.13-1.18,7.22,1.58,8.09,2.5c0.13,0.14,0.36,0.14,0.49,0
	c0.06-0.07,0.14-0.14,0.23-0.21c0.03-0.04,0.07-0.08,0.12-0.12c0.94-0.88,2.96-2.41,5.63-2.44c0.97,0,1.88,0.23,2.66,0.55
	c1.34,0.54,2.36,1.32,2.94,1.89c0.7,0.69,1,1.29,1.31,1.93c0.37,0.76,0.63,1.56,0.78,2.36c0.26,1.27,0.25,2.53,0.02,3.63
	L33.94,14.46z"/>
<path class="st3" d="M33.94,14.47c-0.75,3.67-2.93,6.17-5.12,8.11c-0.24,0.21-1.94,1.58-2.6,2.04c-2.01,1.39-4.09,2.47-5.26,3.06
	c-0.16,0.08-0.33,0.14-0.51,0.17c-0.48,0.1-0.98,0.04-1.42-0.17c-1.55-0.78-4.67-2.43-7.17-4.51c-2.02-1.7-4.15-3.83-5.28-6.85
	c-0.22-0.58-0.4-1.2-0.53-1.85c-0.3-1.43-0.21-3.17,0.35-4.81c0.77-2.3,2.47-4.4,5.26-5.19c4.13-1.17,7.22,1.57,8.09,2.47
	c0.13,0.14,0.36,0.14,0.49,0c0.06-0.07,0.14-0.14,0.23-0.21c0.03-0.04,0.07-0.08,0.12-0.12c0.94-0.87,2.96-2.39,5.63-2.42
	c0.97,0,1.88,0.23,2.66,0.55c1.34,0.53,2.35,1.32,2.94,1.88c0.54,0.51,0.73,0.89,0.98,1.31c0.55,0.92,0.92,1.94,1.11,2.95
	c0.26,1.26,0.25,2.51,0.02,3.59L33.94,14.47z"/>
<path class="st4" d="M19.49,22.53c-0.81,0-1.64-0.09-2.47-0.27c-0.84-0.18-1.57-0.45-2.2-0.8l1.35-2.95
	c0.51,0.29,1.04,0.51,1.59,0.66c0.56,0.14,1.1,0.2,1.59,0.2c0.45,0,0.82-0.07,1.1-0.22c0.29-0.16,0.44-0.39,0.44-0.69
	c0-0.26-0.11-0.46-0.32-0.59c-0.21-0.15-0.58-0.22-1.08-0.22h-1.57v-2.46l3.07-3.12l0.36,1.34h-5.91V10.4h8.84v2.46l-3.07,3.12
	L19.3,14.9h1.05c1.49,0,2.62,0.33,3.4,1s1.17,1.52,1.17,2.57c0,0.68-0.19,1.33-0.58,1.95c-0.37,0.62-0.96,1.13-1.76,1.52
	c-0.79,0.4-1.82,0.59-3.08,0.59L19.49,22.53z"/>
</svg>
