<svg width="24" height="24" viewBox="0 0 24 24" fill="none" xmlns="http://www.w3.org/2000/svg">
<path fill-rule="evenodd" clip-rule="evenodd" d="M3.27672 11.496C3.53972 6.906 7.34672 3.25 12.0007 3.25C16.8257 3.25 20.7507 7.175 20.7507 12C20.7507 16.825 16.8257 20.75 12.0007 20.75C11.0917 20.75 10.1937 20.61 9.33272 20.335L10.0937 17.954C10.7087 18.15 11.3507 18.25 12.0007 18.25C15.4467 18.25 18.2507 15.446 18.2507 12C18.2507 8.554 15.4467 5.75 12.0007 5.75C8.72472 5.75 6.03472 8.285 5.77672 11.496H6.28172C6.82972 11.496 7.17272 12.041 6.89872 12.477L6.00872 13.89L5.24772 15.099C4.90372 15.645 4.09972 15.645 3.75572 15.099L2.99472 13.89L2.10472 12.477C1.82972 12.041 2.17272 11.496 2.72172 11.496H3.27672ZM10.8252 8.55605C10.8252 7.94905 11.3182 7.45605 11.9252 7.45605C12.5332 7.45605 13.0252 7.94905 13.0252 8.55605V11.6531L15.4562 13.0461C15.9832 13.3481 16.1662 14.0201 15.8632 14.5471C15.6602 14.9021 15.2902 15.1011 14.9082 15.1011C14.7222 15.1011 14.5352 15.0551 14.3622 14.9551L10.8252 12.9291V8.55605Z" fill="#6E61D7"/>
</svg>
