<svg width="24" height="24" viewBox="0 0 24 24" fill="none" xmlns="http://www.w3.org/2000/svg">
<path d="M17.63 2.5H6.35703C5.44503 2.5 4.66003 3.121 4.48203 3.944C4.48203 3.957 4.48203 3.995 4.48203 4.007C4.45703 4.109 4.45703 4.21 4.45703 4.311V19.676V19.689C4.45703 20.702 5.31803 21.5 6.37003 21.5H17.63C18.681 21.5 19.543 20.689 19.543 19.689V4.311C19.543 3.311 18.682 2.5 17.63 2.5ZM16.63 11.341C16.579 11.569 16.529 11.772 16.453 11.974C16.073 13.013 15.351 13.735 14.68 14.317C13.844 15.026 12.793 15.596 12.273 15.862C12.197 15.9 12.032 15.989 12.032 15.989C12.032 15.989 11.867 15.9 11.791 15.862C11.272 15.596 10.22 15.026 9.38403 14.317C8.70003 13.734 7.99103 13.012 7.61103 11.974C7.53503 11.771 7.48403 11.569 7.43403 11.341C7.33303 10.847 7.29503 10.163 7.47203 9.606C7.72503 8.808 8.16903 8.225 9.13103 8.048C10.55 7.795 11.55 8.58 11.892 9.492C11.93 9.606 12.107 9.606 12.145 9.492C12.487 8.58 13.488 7.795 14.906 8.048C15.869 8.225 16.312 8.821 16.565 9.606H16.59C16.769 10.176 16.731 10.847 16.63 11.341Z" fill="#ABB6BA"/>
</svg>
