<?xml version="1.0" encoding="utf-8"?>
<!-- Generator: Adobe Illustrator 26.3.1, SVG Export Plug-In . SVG Version: 6.00 Build 0)  -->
<svg version="1.1" id="_이어_2" xmlns="http://www.w3.org/2000/svg" xmlns:xlink="http://www.w3.org/1999/xlink" x="0px" y="0px"
	 viewBox="0 0 40 40" style="enable-background:new 0 0 40 40;" xml:space="preserve">
<style type="text/css">
	.st0{fill:#FF9D00;}
	.st1{fill:#FFC871;}
	.st2{fill:url(#SVGID_1_);stroke:#FFEEB6;stroke-width:1.17;stroke-linejoin:round;}
	.st3{opacity:0.8;fill:#FFFAE6;enable-background:new    ;}
	.st4{fill:#FFB000;}
</style>
<path class="st0" d="M14.75,27.49v10.44l-2.54,1.08c-0.49,0.2-1.04-0.15-1.04-0.69V25.07C12.2,25.89,13.4,26.69,14.75,27.49z"/>
<path class="st0" d="M28.94,25v13.32c0,0.54-0.54,0.89-1.03,0.69l-2.54-1.08v-10.5c0.68-0.41,1.32-0.82,1.93-1.23
	C27.95,25.75,28.48,25.36,28.94,25z"/>
<path class="st1" d="M25.37,27.43v10.5l-5.32-2.24l-5.29,2.24V27.5c1.05,0.63,2.2,1.25,3.44,1.87c0.57,0.27,1.18,0.4,1.8,0.4
	c0.28,0,0.57-0.03,0.81-0.08c0.35-0.06,0.7-0.17,1.04-0.34C23.14,28.7,24.3,28.07,25.37,27.43z"/>
<linearGradient id="SVGID_1_" gradientUnits="userSpaceOnUse" x1="20.0155" y1="3612.4089" x2="20.0155" y2="3638.0066" gradientTransform="matrix(1 0 0 1 0 -3609.4199)">
	<stop  offset="0" style="stop-color:#FFB000"/>
	<stop  offset="0.9993" style="stop-color:#FFDE66"/>
</linearGradient>
<path class="st2" d="M37.25,10.43c-0.41-2.14-1.34-4.1-2.7-5.66c-0.17-0.19-0.31-0.33-0.41-0.43c-0.83-0.77-2.21-1.85-4.02-2.57
	c-1.31-0.53-2.67-0.81-4.04-0.83h-0.1c-2.45,0.03-4.47,0.86-5.96,1.79c-1.53-0.95-3.6-1.79-6.12-1.79c-1.02,0-2.05,0.15-3.05,0.43
	C7.21,2.4,4.42,5.11,3.2,8.79c-0.72,2.11-0.88,4.42-0.45,6.49c0.18,0.86,0.4,1.64,0.66,2.31c1.41,3.81,4.05,6.37,6.19,8.18
	c2.51,2.1,5.56,3.81,7.69,4.88c0.02,0,0.05,0.02,0.07,0.03c0.82,0.4,1.75,0.6,2.66,0.6c0.4,0,0.81-0.04,1.24-0.12
	c0.53-0.11,1.04-0.29,1.49-0.52c1.38-0.7,3.47-1.8,5.56-3.26c0.55-0.38,1.36-0.97,2.13-1.62c0.25-0.21,0.5-0.41,0.74-0.64
	c2.14-1.91,5.11-5,6.1-9.85c0.32-1.57,0.32-3.26-0.02-4.84H37.25z M33.95,14.53c-0.76,3.68-2.94,6.19-5.13,8.14
	c-0.24,0.22-1.94,1.59-2.6,2.05c-2.01,1.4-4.09,2.48-5.25,3.07c-0.17,0.08-0.34,0.14-0.51,0.17c-0.49,0.1-0.98,0.04-1.43-0.17
	c-1.54-0.78-4.66-2.43-7.17-4.52c-2.02-1.71-4.15-3.85-5.27-6.88c-0.22-0.58-0.4-1.2-0.54-1.85c-0.29-1.45-0.21-3.19,0.35-4.83
	c0.77-2.32,2.47-4.43,5.26-5.21c4.13-1.17,7.22,1.58,8.08,2.48c0.13,0.14,0.36,0.14,0.5,0c0.06-0.07,0.13-0.14,0.22-0.21
	c0.04-0.04,0.08-0.08,0.13-0.12c0.94-0.88,2.96-2.39,5.62-2.43c0.98,0,1.88,0.23,2.66,0.55c1.34,0.53,2.37,1.32,2.95,1.88
	c0.26,0.26,0.79,0.99,1.06,1.46c0.5,0.89,0.84,1.85,1.03,2.82c0.26,1.25,0.24,2.51,0.02,3.61L33.95,14.53z"/>
<path class="st3" d="M33.83,14.56c-0.75,3.6-2.92,6.07-5.09,7.98c-0.24,0.21-0.45,0.4-0.67,0.58c-0.6,0.51-1.25,0.98-1.91,1.43
	c-1.99,1.37-4.05,2.43-5.21,3.01c-0.16,0.08-0.34,0.14-0.5,0.17c-0.49,0.1-0.97,0.04-1.42-0.17c-1.53-0.76-4.63-2.38-7.11-4.43
	c-2-1.68-4.12-3.77-5.23-6.74c-0.22-0.57-0.39-1.18-0.53-1.82c-0.29-1.42-0.2-3.13,0.34-4.74c0.76-2.27,2.45-4.34,5.22-5.11
	c4.1-1.15,7.17,1.54,8.02,2.43c0.13,0.14,0.36,0.14,0.49,0c0.06-0.07,0.13-0.14,0.22-0.21c0.04-0.04,0.08-0.08,0.13-0.12
	c0.93-0.86,2.93-2.35,5.57-2.38c0.97,0,1.87,0.23,2.64,0.54c1.33,0.52,2.34,1.31,2.92,1.85c0.04,0.04,0.07,0.07,0.11,0.12
	c1.04,1.18,1.69,2.63,1.97,4.08c0.26,1.23,0.24,2.46,0.02,3.54L33.83,14.56z"/>
<path class="st4" d="M18.69,23.1V12.29l1.77,1.68h-3.87v-3.11h6.23v12.25h-4.13L18.69,23.1z"/>
</svg>
