<?xml version="1.0" encoding="utf-8"?>
<!-- Generator: Adobe Illustrator 26.3.1, SVG Export Plug-In . SVG Version: 6.00 Build 0)  -->
<svg version="1.1" id="레이어_1" xmlns="http://www.w3.org/2000/svg" xmlns:xlink="http://www.w3.org/1999/xlink" x="0px"
	 y="0px" viewBox="0 0 72 72" style="enable-background:new 0 0 72 72;" xml:space="preserve">
<style type="text/css">
	.st0{fill:#FFB000;}
	.st1{fill:#FFD797;}
	.st2{fill:#FFEEB6;}
	.st3{fill:url(#SVGID_1_);}
	.st4{opacity:0.92;fill:#FFFAE6;enable-background:new    ;}
	.st5{fill:#F99F00;}
</style>
<rect x="-26.422" y="14.14" transform="matrix(0.7071 -0.7071 0.7071 0.7071 -9.5667 27.1844)" class="st0" width="108.906" height="22"/>
<rect x="-26.433" y="18.628" transform="matrix(0.7071 -0.7071 0.7071 0.7071 -9.5612 27.1731)" class="st1" width="108.906" height="13"/>
<path class="st2" d="M62.071,34.273c0.654-1.437,0.451-3.088-0.525-4.32l-2.455-3.109c-0.29-0.364-0.461-0.804-0.483-1.264
	l-0.225-3.956c-0.086-1.565-1.03-2.937-2.466-3.581l-3.613-1.608c-0.429-0.193-0.783-0.505-1.018-0.9l-2.038-3.399
	c-0.751-1.244-2.124-2.026-3.581-2.026c-0.086,0-0.182,0-0.268,0l-3.956,0.257c-0.054,0-0.096,0-0.15,0
	c-0.407,0-0.815-0.118-1.168-0.333l-3.378-2.058c-0.654-0.396-1.404-0.611-2.176-0.611c-0.772,0-1.522,0.214-2.176,0.611
	l-3.378,2.058c-0.354,0.215-0.751,0.333-1.168,0.333c-0.054,0-0.15,0-0.15,0l-3.956-0.257c-0.086,0-0.182,0-0.268,0
	c-1.458,0-2.831,0.772-3.581,2.026l-2.038,3.398c-0.247,0.397-0.59,0.708-1.018,0.9l-3.613,1.608
	c-1.436,0.644-2.391,2.016-2.476,3.581l-0.225,3.956c-0.032,0.461-0.193,0.9-0.483,1.264l-2.455,3.109
	c-0.975,1.233-1.179,2.895-0.525,4.32l1.641,3.602c0.193,0.419,0.247,0.879,0.161,1.34l-0.729,3.892
	c-0.29,1.544,0.3,3.098,1.544,4.063l3.13,2.434c0.365,0.289,0.633,0.676,0.772,1.114l1.168,3.785c0.461,1.5,1.715,2.604,3.259,2.883
	l3.903,0.697c0.461,0.086,0.868,0.3,1.2,0.633l2.787,2.809c0.783,0.783,1.865,1.232,2.969,1.232c0.419,0,0.847-0.064,1.254-0.193
	l3.774-1.19c0.215-0.075,0.451-0.108,0.676-0.108s0.461,0.043,0.676,0.108l3.774,1.19c0.407,0.129,0.825,0.193,1.254,0.193
	l-0.008,0.01c1.114,0,2.188-0.451,2.969-1.232l2.787-2.809c0.333-0.332,0.74-0.547,1.2-0.633l3.903-0.697
	c1.544-0.279,2.798-1.382,3.259-2.883l1.168-3.807c0.14-0.429,0.397-0.815,0.751-1.093l3.227-2.572
	c1.222-0.986,1.801-2.551,1.49-4.084l-0.74-3.721c-0.086-0.471-0.032-0.943,0.161-1.372L62.071,34.273z M59.112,37.721
	c-0.184,0.407-0.234,0.854-0.152,1.301l0.702,3.529c0.295,1.455-0.254,2.939-1.413,3.875l-3.061,2.44
	c-0.335,0.264-0.58,0.63-0.712,1.037l-1.109,3.61c-0.437,1.424-1.627,2.471-3.091,2.735l-3.702,0.66
	c-0.437,0.082-0.824,0.285-1.139,0.6l-2.644,2.665c-0.742,0.742-1.76,1.169-2.817,1.169l0.008-0.01c-0.407,0-0.804-0.061-1.19-0.183
	l-3.579-1.129c-0.204-0.061-0.427-0.102-0.641-0.102s-0.437,0.03-0.641,0.102l-3.579,1.129c-0.386,0.122-0.793,0.183-1.19,0.183
	c-1.048,0-2.075-0.427-2.817-1.169l-2.644-2.665c-0.316-0.316-0.702-0.519-1.139-0.6l-3.702-0.66
	c-1.464-0.264-2.654-1.312-3.091-2.735l-1.109-3.59c-0.132-0.417-0.386-0.783-0.732-1.057l-2.97-2.308
	c-1.18-0.916-1.739-2.39-1.464-3.855l0.692-3.692c0.082-0.437,0.03-0.874-0.152-1.271l-1.557-3.417
	c-0.621-1.353-0.427-2.929,0.498-4.099l2.329-2.949c0.275-0.346,0.427-0.762,0.457-1.199l0.214-3.753
	c0.082-1.485,0.987-2.786,2.349-3.397l3.427-1.525c0.407-0.184,0.732-0.478,0.966-0.854l1.932-3.224
	c0.712-1.19,2.014-1.922,3.397-1.922c0.082,0,0.173,0,0.254,0l3.753,0.244c0,0,0.091,0,0.142,0c0.397,0,0.773-0.112,1.109-0.316
	l3.203-1.953c0.621-0.377,1.332-0.58,2.065-0.58s1.444,0.204,2.065,0.58l3.204,1.953c0.335,0.204,0.722,0.316,1.109,0.316
	c0.051,0,0.091,0,0.142,0l3.753-0.244c0.082,0,0.173,0,0.254,0c1.383,0,2.685,0.742,3.397,1.922l1.932,3.224
	c0.223,0.377,0.559,0.671,0.966,0.854l3.427,1.525c1.362,0.611,2.258,1.912,2.339,3.397l0.214,3.753
	c0.02,0.437,0.184,0.855,0.457,1.199l2.329,2.949c0.925,1.169,1.119,2.735,0.498,4.099L59.112,37.721z"/>
<linearGradient id="SVGID_1_" gradientUnits="userSpaceOnUse" x1="34.5661" y1="2671.6355" x2="34.5661" y2="2712.9675" gradientTransform="matrix(1 0 0 1 0 -2658)">
	<stop  offset="0" style="stop-color:#FFB000"/>
	<stop  offset="1" style="stop-color:#FFDB57"/>
</linearGradient>
<path class="st3" d="M60.159,30.216l-2.329-2.949c-0.275-0.345-0.437-0.762-0.457-1.199l-0.214-3.753
	c-0.082-1.485-0.977-2.786-2.339-3.397l-3.427-1.525c-0.407-0.184-0.743-0.478-0.966-0.854l-1.932-3.224
	c-0.713-1.18-2.014-1.922-3.397-1.922c-0.082,0-0.173,0-0.254,0l-3.753,0.244c-0.051,0-0.091,0-0.142,0
	c-0.386,0-0.773-0.112-1.109-0.316l-3.204-1.953c-0.62-0.376-1.332-0.58-2.065-0.58s-1.444,0.203-2.065,0.58l-3.203,1.953
	c-0.335,0.204-0.712,0.316-1.109,0.316c-0.051,0-0.142,0-0.142,0l-3.753-0.244c-0.082,0-0.173,0-0.254,0
	c-1.383,0-2.685,0.732-3.397,1.922l-1.932,3.224c-0.234,0.377-0.559,0.671-0.966,0.854l-3.427,1.525
	c-1.362,0.611-2.268,1.912-2.349,3.397l-0.214,3.753c-0.03,0.437-0.184,0.854-0.457,1.199l-2.329,2.949
	c-0.926,1.17-1.119,2.746-0.498,4.099l1.557,3.417c0.184,0.397,0.234,0.834,0.152,1.271l-0.692,3.692
	c-0.275,1.465,0.285,2.939,1.464,3.855l2.97,2.308c0.346,0.275,0.6,0.641,0.732,1.057l1.109,3.59
	c0.437,1.424,1.627,2.471,3.091,2.735l3.702,0.66c0.437,0.082,0.824,0.285,1.139,0.6l2.644,2.665
	c0.742,0.742,1.769,1.169,2.817,1.169c0.397,0,0.804-0.061,1.19-0.183l3.579-1.129c0.204-0.072,0.427-0.102,0.641-0.102
	s0.437,0.041,0.641,0.102l3.579,1.129c0.386,0.122,0.783,0.183,1.19,0.183l-0.008,0.01c1.057,0,2.075-0.427,2.817-1.169l2.644-2.665
	c0.316-0.315,0.702-0.519,1.139-0.6l3.702-0.66c1.464-0.264,2.654-1.312,3.091-2.735l1.109-3.61
	c0.132-0.407,0.377-0.772,0.712-1.037l3.061-2.44c1.159-0.935,1.708-2.42,1.413-3.875l-0.702-3.529
	c-0.082-0.447-0.03-0.895,0.152-1.301l1.546-3.406C61.278,32.951,61.085,31.385,60.159,30.216z M57.363,34.409l-1.35,2.977
	c-0.16,0.355-0.205,0.746-0.134,1.137l0.613,3.084c0.258,1.271-0.222,2.568-1.235,3.385l-2.674,2.133
	c-0.293,0.231-0.506,0.551-0.622,0.906l-0.969,3.155c-0.382,1.244-1.422,2.159-2.701,2.391l-3.235,0.577
	c-0.382,0.071-0.719,0.249-0.995,0.524l-2.311,2.328c-0.649,0.649-1.537,1.022-2.461,1.022l0.007-0.008
	c-0.355,0-0.703-0.053-1.039-0.16l-3.128-0.986c-0.178-0.053-0.373-0.089-0.56-0.089c-0.187,0-0.382,0.026-0.56,0.089l-3.128,0.986
	c-0.338,0.107-0.693,0.16-1.039,0.16c-0.916,0-1.813-0.373-2.461-1.022l-2.311-2.328c-0.275-0.275-0.613-0.453-0.995-0.524
	l-3.235-0.577c-1.28-0.231-2.319-1.146-2.701-2.391l-0.969-3.137c-0.115-0.364-0.338-0.684-0.639-0.924L13.938,45.1
	c-1.031-0.8-1.52-2.088-1.28-3.368l0.605-3.226c0.071-0.382,0.027-0.764-0.133-1.111l-1.36-2.985
	c-0.542-1.182-0.373-2.559,0.435-3.582l2.035-2.577c0.24-0.302,0.373-0.666,0.4-1.049l0.187-3.279
	c0.071-1.297,0.863-2.434,2.053-2.968l2.994-1.333c0.355-0.16,0.639-0.418,0.844-0.746l1.689-2.817
	c0.622-1.039,1.76-1.68,2.968-1.68c0.071,0,0.151,0,0.222,0l3.279,0.213c0,0,0.08,0,0.124,0c0.347,0,0.676-0.098,0.969-0.275
	l2.799-1.706c0.542-0.329,1.164-0.506,1.803-0.506c0.639,0,1.262,0.178,1.803,0.506l2.799,1.706
	c0.293,0.178,0.631,0.275,0.969,0.275c0.045,0,0.08,0,0.124,0l3.279-0.213c0.071,0,0.151,0,0.222,0c1.209,0,2.346,0.649,2.968,1.68
	l1.689,2.817c0.195,0.329,0.489,0.586,0.844,0.746l2.994,1.333c1.19,0.533,1.973,1.67,2.044,2.968l0.187,3.279
	c0.018,0.382,0.16,0.746,0.4,1.049l2.035,2.577C57.737,31.85,57.906,33.218,57.363,34.409z"/>
<path class="st2" d="M54.894,28.251c-0.24-0.302-0.382-0.666-0.4-1.049l-0.187-3.279c-0.071-1.297-0.853-2.434-2.044-2.968
	l-2.994-1.333c-0.355-0.16-0.649-0.418-0.844-0.746l-1.689-2.817c-0.622-1.031-1.76-1.68-2.968-1.68c-0.071,0-0.151,0-0.222,0
	l-3.279,0.213c-0.045,0-0.08,0-0.124,0c-0.338,0-0.676-0.098-0.969-0.275l-2.799-1.706c-0.542-0.329-1.164-0.506-1.803-0.506
	c-0.64,0-1.262,0.178-1.803,0.506l-2.799,1.706c-0.293,0.178-0.622,0.275-0.969,0.275c-0.045,0-0.124,0-0.124,0l-3.28-0.212
	c-0.071,0-0.151,0-0.222,0c-1.209,0-2.347,0.639-2.968,1.68l-1.689,2.817c-0.205,0.329-0.489,0.586-0.844,0.746l-2.994,1.333
	c-1.19,0.533-1.982,1.67-2.053,2.968l-0.187,3.279c-0.027,0.382-0.16,0.746-0.4,1.049l-2.035,2.577
	c-0.809,1.023-0.977,2.4-0.435,3.582l1.36,2.985c0.16,0.347,0.205,0.729,0.133,1.111l-0.605,3.226
	c-0.24,1.28,0.248,2.568,1.28,3.368l2.594,2.017c0.302,0.24,0.524,0.56,0.639,0.924l0.972,3.136
	c0.382,1.243,1.422,2.159,2.701,2.391l3.235,0.577c0.382,0.071,0.719,0.248,0.995,0.524l2.311,2.328
	c0.649,0.649,1.546,1.022,2.461,1.022c0.347,0,0.703-0.053,1.039-0.16l3.128-0.986c0.178-0.062,0.373-0.089,0.56-0.089
	c0.187,0,0.382,0.036,0.56,0.089l3.128,0.986c0.338,0.107,0.684,0.16,1.039,0.16l-0.007,0.008c0.924,0,1.813-0.373,2.461-1.022
	l2.311-2.328c0.275-0.275,0.613-0.453,0.995-0.524l3.235-0.577c1.28-0.231,2.319-1.146,2.701-2.391l0.969-3.155
	c0.115-0.355,0.329-0.675,0.622-0.906l2.674-2.133c1.013-0.817,1.493-2.114,1.235-3.385l-0.613-3.084
	c-0.071-0.391-0.027-0.782,0.134-1.137l1.35-2.977c0.542-1.191,0.373-2.56-0.435-3.582L54.894,28.251z M55.62,34.459l-1.247,2.749
	c-0.147,0.329-0.189,0.69-0.123,1.05l0.566,2.848c0.238,1.173-0.205,2.372-1.141,3.126l-2.47,1.969
	c-0.27,0.214-0.467,0.509-0.574,0.837l-0.895,2.914c-0.353,1.149-1.313,1.994-2.494,2.207l-2.987,0.533
	c-0.353,0.066-0.665,0.23-0.919,0.484l-2.134,2.15c-0.599,0.599-1.419,0.943-2.273,0.943l0.006-0.008
	c-0.329,0-0.649-0.049-0.96-0.147l-2.888-0.911c-0.164-0.049-0.345-0.083-0.517-0.083c-0.173,0-0.353,0.024-0.517,0.083
	l-2.888,0.911c-0.312,0.099-0.64,0.147-0.96,0.147c-0.846,0-1.675-0.345-2.273-0.943l-2.134-2.15
	c-0.254-0.254-0.566-0.419-0.919-0.484l-2.987-0.533c-1.182-0.213-2.142-1.059-2.494-2.207l-0.895-2.897
	c-0.107-0.336-0.312-0.632-0.59-0.853l-2.396-1.862c-0.952-0.739-1.403-1.928-1.182-3.111l0.558-2.979
	c0.066-0.353,0.024-0.706-0.123-1.026l-1.256-2.757c-0.5-1.092-0.345-2.363,0.402-3.307l1.879-2.38
	c0.222-0.279,0.345-0.615,0.369-0.968l0.173-3.028c0.066-1.198,0.796-2.248,1.895-2.741l2.765-1.231
	c0.329-0.148,0.59-0.386,0.78-0.69l1.559-2.601c0.574-0.96,1.625-1.551,2.741-1.551c0.066,0,0.139,0,0.205,0l3.028,0.197
	c0,0,0.073,0,0.115,0c0.32,0,0.624-0.09,0.895-0.254l2.585-1.575c0.5-0.303,1.075-0.467,1.665-0.467c0.59,0,1.165,0.164,1.665,0.467
	l2.585,1.575c0.27,0.164,0.583,0.254,0.895,0.254c0.041,0,0.073,0,0.115,0l3.028-0.197c0.066,0,0.139,0,0.205,0
	c1.116,0,2.166,0.599,2.741,1.551l1.559,2.601c0.18,0.303,0.451,0.542,0.78,0.69l2.765,1.231c1.099,0.493,1.822,1.543,1.888,2.741
	l0.173,3.028c0.017,0.353,0.148,0.69,0.369,0.968l1.879,2.38C55.964,32.096,56.12,33.359,55.62,34.459z"/>
<path class="st4" d="M53.339,28.773c-0.222-0.279-0.353-0.615-0.369-0.968l-0.173-3.028c-0.066-1.198-0.788-2.248-1.888-2.741
	l-2.765-1.231c-0.329-0.148-0.6-0.386-0.78-0.69l-1.559-2.601c-0.574-0.952-1.625-1.551-2.741-1.551c-0.066,0-0.139,0-0.205,0
	l-3.028,0.197c-0.041,0-0.073,0-0.115,0c-0.312,0-0.624-0.09-0.895-0.254l-2.585-1.575c-0.5-0.303-1.075-0.467-1.665-0.467
	s-1.165,0.163-1.665,0.467l-2.585,1.575c-0.27,0.164-0.574,0.254-0.895,0.254c-0.041,0-0.115,0-0.115,0l-3.028-0.197
	c-0.066,0-0.139,0-0.205,0c-1.116,0-2.166,0.59-2.741,1.551l-1.559,2.601c-0.189,0.304-0.451,0.542-0.78,0.69l-2.765,1.231
	c-1.099,0.493-1.83,1.543-1.895,2.741l-0.173,3.028c-0.024,0.353-0.148,0.689-0.369,0.968l-1.879,2.38
	c-0.746,0.944-0.902,2.216-0.402,3.307l1.256,2.757c0.148,0.32,0.189,0.673,0.123,1.026l-0.558,2.979
	c-0.222,1.182,0.229,2.372,1.182,3.111l2.396,1.862c0.279,0.222,0.484,0.517,0.59,0.853l0.895,2.897
	c0.353,1.148,1.313,1.994,2.494,2.207l2.987,0.533c0.353,0.066,0.665,0.229,0.919,0.484l2.134,2.15
	c0.599,0.599,1.428,0.943,2.273,0.943c0.32,0,0.649-0.049,0.96-0.147l2.888-0.911c0.164-0.058,0.345-0.083,0.517-0.083
	s0.353,0.033,0.517,0.083l2.888,0.911c0.312,0.099,0.632,0.147,0.96,0.147l-0.006,0.008c0.853,0,1.675-0.345,2.273-0.943l2.134-2.15
	c0.254-0.254,0.566-0.419,0.919-0.484l2.987-0.533c1.182-0.213,2.142-1.058,2.494-2.207l0.895-2.914
	c0.107-0.329,0.303-0.623,0.574-0.837l2.47-1.969c0.936-0.755,1.379-1.953,1.141-3.126l-0.566-2.848
	c-0.066-0.361-0.024-0.722,0.123-1.05l1.247-2.749c0.5-1.1,0.345-2.364-0.402-3.307L53.339,28.773z"/>
<g>
	<path class="st5" d="M32.19,48.105V27.978l2.752,2.656h-6.911v-4.928h10.496v22.399H32.19z"/>
</g>
</svg>
