<?xml version="1.0" encoding="utf-8"?>
<!-- Generator: Adobe Illustrator 26.3.1, SVG Export Plug-In . SVG Version: 6.00 Build 0)  -->
<svg version="1.1" id="레이어_1" xmlns="http://www.w3.org/2000/svg" xmlns:xlink="http://www.w3.org/1999/xlink" x="0px"
	 y="0px" viewBox="0 0 40 40" style="enable-background:new 0 0 40 40;" xml:space="preserve">
<style type="text/css">
	.st0{fill:#A3ABAD;}
	.st1{fill:#636B70;}
	.st2{opacity:0.91;fill:#E4EAEF;enable-background:new    ;}
	.st3{fill:#E8ECEF;}
	.st4{fill:url(#SVGID_1_);}
	.st5{fill:#5D6468;}
</style>
<path class="st0" d="M11.5,0v12.1l6.8,2.1c0.9,0.3,1.9,0.3,2.8,0l7.4-2.2V0H11.5z"/>
<polygon class="st1" points="28.5,0 28.5,12 32,11 32,0 "/>
<polygon class="st1" points="8,0 8,11 11.5,12.1 11.5,0 "/>
<circle class="st2" cx="20" cy="23" r="13.5"/>
<path class="st3" d="M20,6C10.6,6,3,13.6,3,23s7.6,17,17,17s17-7.6,17-17S29.4,6,20,6z M20,39c-8.8,0-16-7.2-16-16S11.2,7,20,7
	s16,7.2,16,16S28.8,39,20,39z"/>
<linearGradient id="SVGID_1_" gradientUnits="userSpaceOnUse" x1="20" y1="7.5225" x2="20" y2="39.5225">
	<stop  offset="0" style="stop-color:#9CA3A8"/>
	<stop  offset="1" style="stop-color:#DBE7F0"/>
</linearGradient>
<path class="st4" d="M20,7C11.2,7,4,14.2,4,23s7.2,16,16,16s16-7.2,16-16S28.8,7,20,7z M20,36.5c-7.5,0-13.5-6-13.5-13.5
	S12.5,9.5,20,9.5s13.5,6,13.5,13.5S27.5,36.5,20,36.5z"/>
<path class="st3" d="M20,9.5c-7.5,0-13.5,6-13.5,13.5s6,13.5,13.5,13.5s13.5-6,13.5-13.5S27.5,9.5,20,9.5z M20,35.5
	c-6.9,0-12.5-5.6-12.5-12.5S13.1,10.5,20,10.5S32.5,16.1,32.5,23S26.9,35.5,20,35.5z"/>
<g>
	<path class="st5" d="M14.1,30.4v-2.9l6-5.6c0.4-0.4,0.8-0.8,1-1.1c0.2-0.3,0.3-0.6,0.4-0.8c0.1-0.2,0.1-0.5,0.1-0.7
		c0-0.5-0.2-0.9-0.5-1.2c-0.3-0.3-0.9-0.4-1.6-0.4c-0.6,0-1.1,0.1-1.6,0.4c-0.5,0.3-0.9,0.6-1.2,1.1l-3.4-1.9c0.6-1,1.4-1.8,2.6-2.4
		S18.4,14,20,14c1.2,0,2.3,0.2,3.3,0.6s1.7,1,2.2,1.7c0.5,0.7,0.8,1.6,0.8,2.6c0,0.5-0.1,1-0.2,1.5c-0.1,0.5-0.4,1.1-0.8,1.6
		c-0.4,0.6-1,1.2-1.7,1.9l-4.8,4.4l-0.8-1.6h8.7v3.6H14.1z"/>
</g>
</svg>
